<svg width="32" height="32" viewBox="0 0 32 32" xmlns="http://www.w3.org/2000/svg">
  <defs>
    <linearGradient id="bgGradient" x1="0%" y1="0%" x2="100%" y2="100%">
      <stop offset="0%" stop-color="#10b981" />
      <stop offset="100%" stop-color="#059669" />
    </linearGradient>
  </defs>
  
  <!-- Background circle with gradient -->
  <circle 
    cx="16" 
    cy="16" 
    r="14" 
    fill="url(#bgGradient)" 
    stroke="#047857" 
    stroke-width="1.5"
  />
  
  <!-- Thumbs up icon representing "Tudobem" (all good) -->
  <path 
    d="M12 22c-0.8 0-1.5-0.7-1.5-1.5v-6c0-0.8 0.7-1.5 1.5-1.5h1.2l2-3c0.5-0.8 1.3-1.2 2.2-1 1.1 0.2 1.7 1.2 1.7 2.3v2.3h2.3c0.8 0 1.5 0.7 1.5 1.5l-1.2 5.5c-0.2 0.7-0.8 1.2-1.5 1.2H12z" 
    fill="#ffffff" 
    stroke="#e5e7eb" 
    stroke-width="0.3"
  />
  
  <!-- Portuguese flag accent - small decorative elements -->
  <circle 
    cx="10" 
    cy="12" 
    r="1.5" 
    fill="#dc2626" 
    opacity="0.8"
  />
  
  <circle 
    cx="22" 
    cy="20" 
    r="1.5" 
    fill="#fbbf24" 
    opacity="0.8"
  />
  
  <!-- Success checkmark -->
  <path 
    d="M11 16l1.5 1.5 3-3" 
    stroke="#10b981" 
    stroke-width="1.5" 
    fill="none" 
    stroke-linecap="round" 
    stroke-linejoin="round"
  />
</svg>