<svg width="192" height="192" viewBox="0 0 192 192" xmlns="http://www.w3.org/2000/svg">
  <defs>
    <linearGradient id="bgGrad192" x1="0%" y1="0%" x2="100%" y2="100%">
      <stop offset="0%" stop-color="#10b981" />
      <stop offset="100%" stop-color="#059669" />
    </linearGradient>
  </defs>
  
  <!-- Background circle -->
  <circle cx="96" cy="96" r="84" fill="url(#bgGrad192)" stroke="#047857" stroke-width="6"/>
  
  <!-- Thumbs up icon -->
  <path d="M72 144c-5.2 0-9.6-4.4-9.6-9.6v-38.4c0-5.2 4.4-9.6 9.6-9.6h7.2l12-19.2c2.4-4.8 8.4-7.2 13.2-6 7.2 1.2 10.8 7.2 10.8 14.4v14.4h14.4c5.2 0 9.6 4.4 9.6 9.6l-7.2 33.6c-1.2 4.8-4.8 7.2-9.6 7.2H72z" 
        fill="#ffffff" stroke="#e5e7eb" stroke-width="2"/>
  
  <!-- Portuguese flag accent circles -->
  <circle cx="48" cy="60" r="12" fill="#dc2626" opacity="0.8"/>
  <circle cx="144" cy="132" r="12" fill="#fbbf24" opacity="0.8"/>
  
  <!-- Success checkmark -->
  <path d="M66 96l12 12 24-24" stroke="#10b981" stroke-width="8" fill="none" stroke-linecap="round" stroke-linejoin="round"/>
</svg>