<svg width="16" height="16" viewBox="0 0 16 16" xmlns="http://www.w3.org/2000/svg">
  <defs>
    <linearGradient id="bg" x1="0%" y1="0%" x2="100%" y2="100%">
      <stop offset="0%" stop-color="#10b981" />
      <stop offset="100%" stop-color="#059669" />
    </linearGradient>
  </defs>
  
  <!-- Background circle -->
  <circle cx="8" cy="8" r="7" fill="url(#bg)" stroke="#047857" stroke-width="1"/>
  
  <!-- Simplified thumbs up -->
  <path d="M6 12c-.4 0-.8-.4-.8-.8v-3.2c0-.4.4-.8.8-.8h.6l1-1.6c.2-.4.7-.6 1.1-.5.6.1.9.6.9 1.2v1.2h1.2c.4 0 .8.4.8.8l-.6 2.8c-.1.4-.4.6-.8.6H6z" 
        fill="#ffffff" stroke="#e5e7eb" stroke-width="0.2"/>
  
  <!-- Success indicator -->
  <path d="M5.5 8l1 1 2-2" stroke="#ffffff" stroke-width="1" fill="none" stroke-linecap="round"/>
</svg>